<svg width="17" height="17" viewBox="0 0 17 17" fill="none" xmlns="http://www.w3.org/2000/svg">
<g clip-path="url(#clip0_1_369)">
<path d="M12.5791 9.76843C12.546 9.75254 11.3067 9.14225 11.0864 9.06299C10.9965 9.0307 10.9002 8.99918 10.7978 8.99918C10.6304 8.99918 10.4898 9.08258 10.3803 9.2464C10.2565 9.43042 9.88175 9.8685 9.76595 9.99937C9.75082 10.0166 9.73018 10.0373 9.71782 10.0373C9.70672 10.0373 9.51492 9.9583 9.45686 9.93308C8.12738 9.35557 7.11825 7.96682 6.97988 7.73263C6.96012 7.69896 6.95929 7.68367 6.95913 7.68367C6.96398 7.66584 7.00869 7.62102 7.03176 7.5979C7.09926 7.53111 7.1724 7.44307 7.24316 7.35791C7.27666 7.31756 7.31022 7.27716 7.34317 7.23907C7.44583 7.11963 7.49153 7.02691 7.54452 6.9195L7.57228 6.86369C7.70166 6.60665 7.59116 6.38974 7.55545 6.31969C7.52614 6.26108 7.00284 4.99811 6.9472 4.86542C6.81341 4.54524 6.63662 4.39616 6.39095 4.39616C6.36815 4.39616 6.39095 4.39616 6.29535 4.40018C6.17895 4.4051 5.54503 4.48855 5.26476 4.66523C4.96753 4.85262 4.46471 5.44994 4.46471 6.5004C4.46471 7.44583 5.06467 8.3385 5.32227 8.678C5.32867 8.68656 5.34043 8.70394 5.35748 8.72889C6.34398 10.1696 7.57377 11.2373 8.82046 11.7353C10.0207 12.2147 10.589 12.2701 10.9121 12.2701H10.9122C11.048 12.2701 11.1566 12.2595 11.2525 12.25L11.3133 12.2442C11.728 12.2075 12.6391 11.7354 12.8464 11.1594C13.0096 10.7057 13.0527 10.2101 12.9441 10.0302C12.8697 9.90791 12.7414 9.84637 12.5791 9.76843Z" fill="#3E2723"/>
<path d="M8.65089 0C4.04676 0 0.30102 3.71759 0.30102 8.28711C0.30102 9.76507 0.696546 11.2118 1.44582 12.4779L0.0116885 16.7084C-0.0150258 16.7872 0.00484432 16.8744 0.0631852 16.9338C0.105299 16.9768 0.162425 17 0.220766 17C0.24312 17 0.26564 16.9966 0.287607 16.9896L4.69878 15.5879C5.90589 16.2328 7.27019 16.5733 8.65095 16.5733C13.2546 16.5733 17 12.8561 17 8.28711C17 3.71759 13.2546 0 8.65089 0ZM8.65089 14.8471C7.35166 14.8471 6.09327 14.4719 5.01157 13.7621C4.97519 13.7382 4.93297 13.726 4.89047 13.726C4.868 13.726 4.84548 13.7294 4.82357 13.7363L2.61385 14.4387L3.32719 12.3342C3.35026 12.2661 3.33872 12.191 3.29622 12.1329C2.47249 11.0074 2.03706 9.67758 2.03706 8.28711C2.03706 4.66948 5.004 1.72627 8.65084 1.72627C12.2972 1.72627 15.2638 4.66948 15.2638 8.28711C15.2639 11.9043 12.2973 14.8471 8.65089 14.8471Z" fill="#3E2723"/>
</g>
<defs>
<clipPath id="clip0_1_369">
<rect width="17" height="17" fill="white"/>
</clipPath>
</defs>
</svg>
