<svg width="16" height="15" viewBox="0 0 16 15" fill="none" xmlns="http://www.w3.org/2000/svg">
<path d="M6.6341 8.18638C6.92887 8.58045 7.30494 8.90652 7.7368 9.14246C8.16867 9.37841 8.64623 9.51872 9.13708 9.55388C9.62794 9.58903 10.1206 9.51821 10.5817 9.34621C11.0428 9.17421 11.4615 8.90507 11.8094 8.55703L13.8685 6.49789C14.4937 5.85063 14.8396 4.98372 14.8318 4.08389C14.824 3.18406 14.463 2.3233 13.8267 1.687C13.1904 1.0507 12.3297 0.689773 11.4298 0.681953C10.53 0.674134 9.6631 1.02005 9.01584 1.6452L7.83526 2.8189" stroke="#3E2723" stroke-linecap="round" stroke-linejoin="round"/>
<path d="M9.37962 6.81363C9.08485 6.41956 8.70878 6.09349 8.27692 5.85754C7.84505 5.62159 7.36749 5.48128 6.87664 5.44613C6.38578 5.41098 5.8931 5.4818 5.43202 5.6538C4.97094 5.82579 4.55224 6.09494 4.20432 6.44298L2.14519 8.50212C1.52004 9.14938 1.17413 10.0163 1.18195 10.9161C1.18977 11.8159 1.55069 12.6767 2.18699 13.313C2.82329 13.9493 3.68406 14.3102 4.58389 14.3181C5.48372 14.3259 6.35062 13.98 6.99788 13.3548L8.17159 12.1811" stroke="#3E2723" stroke-linecap="round" stroke-linejoin="round"/>
</svg>
