<svg width="14" height="15" viewBox="0 0 14 15" fill="none" xmlns="http://www.w3.org/2000/svg">
<path opacity="0.5" d="M4.72667 8.53543L9.28 11.2646M9.27333 3.73543L4.72667 6.46457M13 2.7C13 3.83613 12.1046 4.75714 11 4.75714C9.89543 4.75714 9 3.83613 9 2.7C9 1.56387 9.89543 0.642857 11 0.642857C12.1046 0.642857 13 1.56387 13 2.7ZM5 7.5C5 8.63613 4.10457 9.55714 3 9.55714C1.89543 9.55714 1 8.63613 1 7.5C1 6.36387 1.89543 5.44286 3 5.44286C4.10457 5.44286 5 6.36387 5 7.5ZM13 12.3C13 13.4361 12.1046 14.3571 11 14.3571C9.89543 14.3571 9 13.4361 9 12.3C9 11.1639 9.89543 10.2429 11 10.2429C12.1046 10.2429 13 11.1639 13 12.3Z" stroke="#3E2723" stroke-linecap="round" stroke-linejoin="round"/>
</svg>
