<svg width="17" height="16" viewBox="0 0 17 16" fill="none" xmlns="http://www.w3.org/2000/svg">
<path d="M0.878788 1.13637H5.42424C6.22793 1.13637 6.9987 1.45563 7.56699 2.02392C8.13528 2.59221 8.45454 3.36298 8.45454 4.16667V14.7727C8.45454 14.17 8.2151 13.5919 7.78888 13.1657C7.36266 12.7395 6.78458 12.5 6.18182 12.5H0.878788V1.13637Z" stroke="#8F4B25" stroke-linecap="round" stroke-linejoin="round"/>
<path d="M16.0303 1.13637H11.4848C10.6812 1.13637 9.91039 1.45563 9.3421 2.02392C8.77381 2.59221 8.45454 3.36298 8.45454 4.16667V14.7727C8.45454 14.17 8.69399 13.5919 9.12021 13.1657C9.54643 12.7395 10.1245 12.5 10.7273 12.5H16.0303V1.13637Z" stroke="#8F4B25" stroke-linecap="round" stroke-linejoin="round"/>
</svg>
